# xmcd
# 
# Track frame offsets:
#     180
#     24342
#     45023
#     63079
#     82388
#     105036
#     127294
#     146635
# 
# Disc length: 2275
# 
# Revision: 2
# Processed by: cddbd v1.5.2PL0 Copyright (c) Steve Scherf et al.
# Submitted via: fre:ac v1.0.17
# 
DISCID=6008e108
DTITLE=Reverend Gary Davis  - Sun is Going Down
DYEAR=1976
DGENRE=Blues
TTITLE0=Sun is Going Down
TTITLE1=Oh, What a Beautiful City (Twelve Gates to the City)
TTITLE2=Morning Train
TTITLE3=Fast Stepping Time
TTITLE4=Birdshead Special
TTITLE5=Long John
TTITLE6=God's Unchanging Hand
TTITLE7=We Are the Heavenly Father's Children
EXTD=
EXTT0=
EXTT1=
EXTT2=
EXTT3=
EXTT4=
EXTT5=
EXTT6=
EXTT7=
PLAYORDER=
